<?xml version="1.0" standalone="no"?>
<!DOCTYPE svg PUBLIC "-//W3C//DTD SVG 20010904//EN"
 "http://www.w3.org/TR/2001/REC-SVG-20010904/DTD/svg10.dtd">
<svg version="1.0" xmlns="http://www.w3.org/2000/svg"
 width="1024.000000pt" height="1024.000000pt" viewBox="0 0 1024.000000 1024.000000"
 preserveAspectRatio="xMidYMid meet">
<metadata>
Created by potrace 1.16, written by Peter Selinger 2001-2019
</metadata>
<g transform="translate(0.000000,1024.000000) scale(0.100000,-0.100000)"
fill="#000000" stroke="none">
<path d="M0 5120 l0 -5120 5120 0 5120 0 0 4819 0 4819 -36 27 c-19 15 -33 29
-30 33 3 3 18 -7 33 -22 29 -29 46 -18 21 12 -8 9 -18 24 -22 32 -4 8 1 4 12
-10 l21 -25 0 118 c1 72 -3 117 -9 117 -6 0 -10 5 -10 11 0 5 5 7 10 4 16 -10
12 6 -7 29 -17 20 -17 20 0 7 16 -12 17 -10 17 32 0 29 -5 47 -14 50 -18 7
-28 -17 -13 -32 8 -8 8 -11 -1 -11 -7 0 -13 5 -13 10 -1 6 -2 16 -3 23 -1 6
-8 11 -15 9 -7 -1 -10 2 -6 7 3 6 13 7 22 4 17 -7 13 5 -11 36 -13 16 -17 41
-7 41 4 0 18 -12 32 -27 17 -20 18 -23 3 -10 -31 26 -37 20 -12 -13 26 -36 38
-38 38 -6 0 16 -18 42 -52 77 -51 49 -51 50 -10 19 23 -17 42 -36 42 -41 0 -5
4 -9 9 -9 5 0 8 16 8 36 -2 27 -8 39 -30 52 -24 15 -29 15 -37 2 -5 -8 -10
-10 -10 -4 0 12 -40 27 -48 19 -3 -3 -1 -10 4 -18 5 -7 1 -4 -8 6 -16 18 -18
18 -18 2 0 -12 -4 -15 -12 -8 -7 6 -22 13 -33 17 -16 6 -18 5 -7 -5 18 -19 15
-34 -5 -18 -9 8 -19 14 -22 14 -3 0 -5 3 -3 8 1 4 -5 7 -13 7 -9 0 -12 -6 -8
-17 6 -17 5 -17 -14 0 -26 22 -51 24 -33 2 11 -13 10 -14 -4 -9 -9 3 -16 9
-16 13 0 4 -9 7 -21 8 -14 1 -19 -3 -15 -13 4 -11 1 -11 -19 2 -20 13 -28 14
-39 5 -8 -7 -16 -8 -19 -4 -9 14 -137 16 -137 2 0 -8 -4 -8 -13 -1 -8 7 -138
10 -380 10 -340 0 -367 -1 -355 -17 10 -13 9 -13 -8 2 -17 14 -40 17 -123 17
-79 0 -100 -3 -95 -12 6 -10 5 -10 -7 -1 -21 17 -483 17 -472 0 5 -9 3 -9 -8
-1 -20 17 -577 18 -561 2 23 -23 12 -31 -11 -10 -30 29 -57 30 -32 2 27 -30
12 -34 -15 -5 -25 26 -51 36 -31 11 8 -9 8 -16 2 -20 -6 -4 -14 2 -20 12 -8
15 -23 19 -76 20 -49 1 -64 -2 -59 -11 5 -9 3 -9 -7 1 -7 6 -24 12 -37 12 -16
0 -21 -4 -16 -12 6 -10 5 -10 -7 -1 -21 17 -452 16 -442 0 5 -9 2 -8 -8 0 -22
18 -683 18 -673 0 6 -9 5 -9 -7 0 -12 10 -680 13 -3112 13 l-3097 0 0 -5120z
m7356 3496 c14 4 15 3 5 -4 -11 -8 -11 -11 0 -18 15 -9 169 -14 169 -6 0 3 -8
15 -17 26 -10 12 -3 8 15 -8 34 -32 43 -26 15 9 -10 11 -6 8 9 -7 28 -29 45
-37 32 -16 -5 7 -3 8 7 2 17 -10 69 -14 69 -5 0 4 -6 13 -12 21 -7 8 -1 4 14
-9 36 -32 49 -19 17 17 -18 20 -15 19 12 -5 33 -31 68 -45 54 -23 -4 6 -12 7
-18 4 -7 -4 -9 -3 -4 1 4 5 -1 18 -10 29 -10 12 -1 5 20 -13 23 -22 37 -30 37
-20 0 12 2 12 10 -1 5 -8 12 -11 16 -7 4 3 1 14 -7 23 -13 16 -12 16 9 3 12
-8 22 -17 22 -21 0 -4 18 -7 40 -6 22 1 40 5 40 10 0 4 -5 8 -12 8 -6 0 -8 3
-4 7 4 5 14 -1 22 -11 10 -15 14 -16 14 -5 0 8 -6 21 -12 27 -7 7 2 6 20 -3
17 -9 32 -19 32 -21 0 -3 -4 -2 -10 1 -5 3 -10 2 -10 -3 0 -5 15 -9 33 -9 24
-1 27 1 13 6 -11 4 -15 10 -9 14 5 3 19 0 29 -8 26 -19 34 -19 28 3 -5 15 -4
15 10 -2 13 -16 17 -17 30 -3 14 13 13 15 -6 21 -12 3 -19 8 -16 11 3 4 16 1
28 -5 17 -9 19 -14 10 -25 -10 -12 -1 -14 47 -17 55 -3 58 -4 55 -27 -2 -13 2
-28 10 -32 7 -5 8 -9 2 -9 -8 0 -11 -530 -13 -1892 -1 -1041 -5 -2129 -8
-2418 -11 -827 -12 -1001 -13 -1555 -1 -475 1 -554 15 -622 7 -31 -11 -29 -31
2 -15 23 -17 146 -18 1450 -1 1259 -3 1425 -16 1426 -12 1 -12 2 1 6 23 6 20
59 -3 59 -13 0 -14 -4 -6 -13 16 -19 4 -16 -21 6 -15 13 -18 20 -9 23 9 3 5
17 -15 47 -22 33 -24 40 -10 32 15 -8 19 -6 19 10 0 12 -5 18 -13 15 -7 -3
-13 -1 -13 4 0 6 -12 10 -27 10 -24 -1 -26 -2 -13 -13 18 -14 19 -43 2 -40 -7
2 -12 -2 -12 -8 0 -5 -3 -8 -7 -6 -5 3 -8 756 -8 1674 l0 1668 -2070 3 c-1138
1 -2077 5 -2086 8 -15 4 -23 53 -9 52 29 -2 41 4 36 18 -3 8 -2 13 3 10 5 -3
14 1 21 9 20 24 -5 43 -68 50 -76 9 -92 14 -92 29 0 22 111 27 569 27 382 -1
432 1 415 14 -18 14 -18 14 4 8 12 -3 22 -9 22 -14 0 -5 133 -9 300 -9 233 0
300 3 301 13 0 10 2 10 6 0 3 -8 24 -13 54 -13 37 0 48 3 43 13 -6 10 -4 10 7
0 9 -9 52 -13 137 -13 96 0 122 3 116 13 -6 10 -4 10 7 0 16 -16 179 -18 179
-3 0 6 5 10 11 10 5 0 7 -4 4 -10 -4 -6 15 -10 49 -10 37 0 56 4 56 12 0 9 3
9 12 0 15 -15 112 -17 103 -2 -3 6 -2 10 4 10 5 0 13 -5 16 -10 7 -11 95 -11
95 0 0 3 -6 12 -12 20 -7 8 -1 4 15 -9 18 -16 27 -20 27 -11 0 11 3 11 12 2 7
-7 19 -12 28 -12 13 1 12 3 -2 14 -22 16 -22 22 -2 30 9 3 12 2 9 -5 -4 -6 1
-17 11 -24 26 -20 429 -22 418 -2 -6 10 -4 10 7 0 16 -16 63 -17 53 -2 -5 8
-1 8 14 0 11 -6 29 -11 39 -11 15 0 16 2 3 10 -20 13 -4 13 21 0 13 -8 19 -7
19 0 0 6 5 8 12 4 22 -14 46 -12 41 3 -3 8 -12 12 -19 9 -7 -3 -16 0 -20 6 -4
7 -3 8 4 4 7 -4 12 -3 12 2 0 5 7 9 15 9 8 0 12 -4 10 -8 -9 -14 24 -30 74
-33 49 -4 50 -3 39 18 l-11 21 24 -21 c22 -20 36 -22 153 -22 l129 -1 -44 47
c-31 33 -33 37 -8 14 25 -23 41 -31 55 -26z m445 -415 c44 -3 44 -15 41 -991
-2 -509 -7 -1008 -13 -1110 -5 -102 -12 -255 -15 -340 -30 -807 -31 -965 -24
-3033 2 -373 0 -681 -4 -684 -3 -3 -6 0 -6 7 0 10 -16 11 -65 8 l-65 -6 0 467
c0 256 -5 665 -11 909 -8 323 -8 486 0 605 7 103 13 864 17 2083 l7 1922 -21
11 c-17 9 -22 8 -27 -8 -3 -11 -12 -18 -20 -15 -7 3 -16 0 -21 -7 -5 -8 -3
-10 7 -4 11 6 12 5 2 -5 -10 -11 -15 -11 -30 1 -15 11 -15 10 1 -9 24 -28 28
-49 10 -49 -17 0 -18 14 -1 20 7 4 8 6 1 6 -18 1 -39 -30 -39 -58 0 -16 -6
-27 -15 -27 -32 -3 -35 -5 -21 -13 11 -7 7 -14 -20 -31 -25 -16 -28 -21 -11
-17 29 7 28 -5 -1 -19 -21 -9 -23 -8 -21 10 1 12 3 24 3 29 1 4 10 7 21 7 11
0 20 5 20 11 0 6 -7 9 -15 5 -8 -3 -25 -1 -37 4 -18 7 -19 9 -5 9 9 1 17 6 17
12 0 6 -6 9 -14 6 -8 -3 -22 3 -32 14 -16 18 -15 23 4 17 4 -2 6 -6 5 -9 -1
-3 5 -6 13 -6 10 0 6 9 -12 28 -18 19 -22 28 -12 32 7 2 10 7 6 11 -10 11 -48
-13 -48 -30 0 -9 5 -12 13 -8 8 5 7 2 -2 -10 -12 -15 -15 -274 -17 -1769 -1
-1246 -5 -1777 -13 -1837 -30 -219 -158 -545 -305 -774 -67 -104 -241 -310
-318 -376 -53 -44 -53 -44 -20 -7 18 21 30 42 27 48 -4 5 -2 9 2 9 5 0 8 12 7
28 -1 15 -3 33 -3 41 -1 8 -34 -17 -73 -55 -199 -191 -486 -371 -743 -467 -94
-35 -167 -53 -325 -81 -292 -52 -367 -59 -512 -52 -155 7 -239 16 -233 26 2 3
-8 5 -23 3 -36 -5 -300 49 -421 87 -355 109 -692 325 -954 610 -148 161 -247
318 -335 533 -107 259 -155 495 -178 874 l-7 113 -43 32 c-55 41 -57 58 -6 49
20 -4 222 -6 448 -5 l412 2 6 -121 c12 -207 27 -328 57 -444 105 -410 339
-704 704 -886 179 -88 335 -126 560 -134 333 -12 573 46 830 200 239 143 411
348 511 610 37 97 50 120 42 74 -3 -15 -1 -30 3 -33 14 -8 -1 -105 -23 -147
-10 -21 -18 -41 -15 -43 6 -6 93 183 117 256 53 164 54 166 54 1495 1 677 -2
1269 -7 1317 l-7 87 67 69 c38 37 100 97 138 133 39 36 84 80 100 99 27 31 27
32 5 17 -14 -10 -34 -21 -45 -26 -11 -5 -29 -19 -40 -32 -11 -12 -14 -19 -6
-14 10 5 12 4 7 -3 -4 -7 -17 -12 -28 -12 -12 0 -19 -3 -15 -6 9 -10 -64 -75
-76 -67 -5 3 -7 1 -4 -4 7 -10 -20 -28 -35 -25 -13 3 -9 -16 5 -22 6 -3 2 -3
-11 0 -16 4 -33 -3 -58 -26 l-36 -31 -392 5 c-215 4 -792 7 -1282 9 l-891 2
-6 185 c-4 102 -7 250 -7 329 0 139 -1 146 -24 170 -13 15 -31 37 -39 51 l-16
25 904 -3 c723 -2 905 0 905 10 0 9 4 8 11 -2 8 -11 12 -12 16 -2 2 6 12 12
21 12 15 0 15 -2 2 -10 -10 -6 129 -9 400 -9 228 1 404 5 390 9 -18 6 -10 8
33 8 35 -1 63 4 70 12 9 10 9 11 -2 5 -10 -5 -12 -4 -7 4 4 6 13 8 19 4 16
-10 57 -11 51 -1 -9 14 14 9 30 -7 13 -13 16 -14 23 0 6 9 16 12 32 8 17 -4
19 -8 9 -14 -9 -6 -2 -9 20 -9 20 0 31 4 27 10 -4 6 -11 8 -16 5 -5 -3 -6 1
-3 9 5 13 9 12 27 -4 22 -21 57 -27 57 -10 0 6 5 10 11 10 5 0 7 -4 4 -10 -11
-18 67 -11 88 8 19 16 20 16 14 0 -5 -15 -1 -18 23 -18 22 0 30 5 30 18 0 10
3 13 8 6 4 -6 18 -15 31 -19 18 -6 22 -4 15 6 -6 10 -3 10 10 -1 18 -14 18
-15 -5 -21 -13 -4 32 -7 101 -8 69 0 119 3 113 7 -7 4 -11 18 -9 29 3 15 -3
27 -21 38 -13 9 -22 19 -19 22 3 3 11 2 18 -4 7 -5 24 -10 38 -11 14 -1 33
-11 43 -23 9 -12 17 -17 17 -12 0 14 -22 39 -45 51 -19 11 -19 11 3 11 12 1
31 1 42 2 11 0 18 4 15 9 -3 4 2 11 11 14 8 3 12 2 9 -4 -9 -15 1 -12 18 4 16
16 67 25 191 32 44 2 81 6 84 8 2 3 16 3 30 1 15 -1 34 -3 43 -4z m-4588 -46
c97 -20 152 -51 228 -126 104 -103 159 -233 159 -378 0 -84 -15 -143 -42 -168
-18 -16 -18 -16 -12 0 10 26 -5 20 -47 -18 -22 -19 -43 -35 -49 -35 -5 0 6 32
25 70 18 39 36 92 40 119 15 107 -40 268 -101 297 -19 9 -32 19 -31 24 1 4
-10 22 -26 39 -15 17 -26 34 -26 38 3 14 -143 82 -200 94 -60 12 -140 6 -215
-16 -60 -18 -63 -18 -69 -1 -7 17 51 48 133 70 59 17 117 14 233 -9z m1797
-1092 c68 -33 169 -38 476 -26 173 7 216 12 238 26 l26 17 0 -497 c0 -274 3
-808 6 -1188 6 -698 -2 -1039 -26 -1085 -19 -38 -74 -120 -81 -120 -3 0 -2 21
2 48 4 26 7 425 6 887 -1 462 -4 749 -7 637 -5 -201 -5 -203 -25 -188 -18 14
-18 15 -2 16 9 0 17 4 17 9 0 5 -11 8 -25 6 -21 -2 -23 0 -13 12 8 10 13 11
18 2 6 -8 9 -8 14 0 4 6 2 11 -4 11 -8 0 -8 6 0 23 l11 22 -20 -22 c-24 -28
-38 -29 -46 -3 -3 11 -13 20 -22 20 -17 0 -13 22 7 28 7 3 10 0 6 -7 -4 -6 -1
-9 6 -8 7 2 10 2 6 0 -9 -6 2 -33 13 -33 4 0 5 8 2 17 -5 12 -2 15 10 10 9 -3
21 1 29 11 12 16 11 16 -6 2 -18 -14 -18 -13 -12 10 6 21 5 22 -4 7 -9 -14
-15 -15 -33 -5 -12 7 -28 11 -34 10 -7 -2 -13 5 -13 14 0 12 6 15 25 10 17 -4
25 -2 25 7 0 8 -10 13 -22 13 -17 -1 -22 4 -20 18 2 11 -1 15 -8 11 -6 -4 -8
-15 -5 -26 8 -25 -11 -24 -25 1 -6 11 -16 18 -21 14 -6 -4 -2 -14 10 -25 12
-11 21 -26 21 -34 0 -7 4 -15 9 -17 4 -1 11 -13 15 -25 7 -21 6 -22 -23 -7
-26 13 -29 18 -19 34 9 14 8 21 -5 34 -21 22 -25 20 -24 -11 0 -16 2 -22 4
-15 3 6 9 12 15 12 6 0 3 -9 -7 -20 -10 -11 -23 -20 -29 -19 -6 0 -5 3 2 6 10
4 8 11 -9 29 -12 13 -26 21 -31 18 -5 -3 -15 0 -23 6 -8 7 -16 9 -16 4 -1 -5
-2 -13 -4 -19 -1 -5 -3 -16 -3 -23 -1 -7 -6 -10 -12 -7 -5 3 -10 -2 -11 -12 0
-13 -2 -14 -6 -4 -3 8 2 20 10 26 15 10 15 14 2 31 -14 18 -14 18 -15 -6 0
-19 -2 -22 -10 -10 -5 9 -5 19 1 26 6 7 4 16 -6 24 -8 7 -15 18 -15 26 0 20
-15 25 -35 10 -14 -10 -15 -15 -5 -21 8 -5 11 -4 7 2 -4 6 -1 13 7 16 8 3 16
-2 19 -14 4 -14 0 -19 -14 -19 -10 0 -19 -6 -19 -14 0 -8 -4 -18 -10 -21 -6
-4 -7 5 -4 24 5 25 4 29 -12 25 -11 -3 -28 1 -38 9 -18 13 -18 14 7 21 19 4
25 11 20 22 -4 11 -8 12 -13 4 -10 -16 -60 -23 -61 -8 0 7 -4 4 -9 -7 -9 -20
-9 -20 -9 0 -1 12 -6 26 -13 33 -8 8 -9 12 -1 12 6 0 13 -6 16 -12 2 -7 8 -10
12 -5 11 10 -26 38 -43 32 -7 -3 -10 0 -7 6 4 6 13 8 21 5 7 -3 16 -1 19 4 4
6 1 10 -6 10 -7 0 -9 3 -5 7 4 5 14 -1 22 -12 14 -19 15 -18 8 10 -9 41 -12
45 -29 38 -11 -4 -13 -1 -8 13 4 12 3 15 -5 10 -7 -4 -12 -3 -12 2 0 12 -38
22 -56 15 -8 -3 -14 -9 -14 -15 0 -5 5 -6 10 -3 6 3 10 2 10 -4 0 -5 -5 -13
-11 -17 -8 -4 -7 -9 2 -15 10 -6 11 -9 2 -9 -7 0 -13 -8 -14 -17 0 -15 -2 -15
-8 2 -9 20 -10 116 -11 731 l0 342 -46 51 c-54 60 -41 66 46 24z m1222 -1115
c-1 -508 -4 -936 -6 -953 -1 -16 -5 399 -7 923 -3 631 -1 952 6 952 7 0 9
-312 7 -922z m-2152 666 l575 -7 -3 -61 -3 -61 -672 8 c-370 4 -891 6 -1159 4
l-488 -3 0 47 c0 26 -3 54 -6 62 -5 13 68 15 588 17 326 0 852 -2 1168 -6z
m562 -298 l-3 -61 -1156 3 -1156 2 -1 61 -1 60 1160 -2 1160 -2 -3 -61z
m-1131 -176 l1129 0 0 -58 0 -57 -1160 0 -1160 0 0 64 0 64 31 -7 c17 -3 539
-6 1160 -6z m1132 -236 c-2 -2 -3 -31 -3 -65 0 -33 -4 -58 -9 -55 -5 3 -527 6
-1161 7 l-1152 2 6 30 c3 16 6 44 6 62 l0 33 1158 -5 c636 -3 1156 -7 1155 -9z
m-903 -223 l905 -1 0 -65 1 -65 -1160 5 c-637 3 -1161 7 -1163 9 -2 2 -1 30 2
62 l7 59 252 -2 c138 0 658 -2 1156 -2z m904 -262 c3 -17 6 -49 6 -71 0 -32
-3 -39 -16 -34 -8 3 -530 6 -1159 6 -728 0 -1146 4 -1150 10 -3 5 -3 36 0 67
l7 58 1153 -3 1153 -2 6 -31z m-2094 -490 c0 -17 -5 -243 -11 -502 -12 -515
-7 -629 36 -804 30 -124 105 -325 157 -423 155 -292 406 -559 680 -727 241
-146 490 -234 766 -269 167 -21 1383 -20 1732 1 135 9 288 16 340 18 l95 2 1
123 1 124 44 25 c24 14 51 32 61 40 12 11 18 11 23 2 10 -15 22 -489 14 -495
-10 -6 -19 79 -21 195 -2 95 -2 98 -5 29 -4 -77 -4 -78 -31 -80 -15 0 -34 -2
-42 -2 -9 -1 -15 -11 -14 -24 1 -26 -12 -17 -18 13 -3 19 -11 20 -153 19 -83
0 -251 -8 -374 -17 -179 -14 -358 -17 -871 -17 -383 0 -691 4 -756 11 -495 48
-933 273 -1251 644 -244 283 -400 651 -433 1017 -5 62 -10 287 -10 501 0 228
-4 387 -9 387 -5 0 -11 -5 -13 -11 -2 -7 -12 -7 -30 2 -15 6 -25 16 -21 21 3
6 -4 5 -15 -1 -33 -18 -59 -13 -66 12 -3 12 -6 59 -6 104 0 54 -4 85 -12 90
-12 7 58 16 175 21 35 2 37 1 37 -29z m4957 -2179 c-1 -522 -4 -763 -11 -737
-9 37 -10 37 -61 37 l-52 0 -3 623 c-2 342 -3 683 -4 758 l-1 136 41 54 c23
30 50 69 60 87 l19 33 7 -108 c4 -59 6 -457 5 -883z m-253 446 c14 -348 17
-620 11 -895 -4 -163 -11 -286 -16 -275 -7 21 -44 34 -94 34 l-22 0 -5 562 -5
561 35 46 c19 25 43 66 54 91 27 64 35 41 42 -124z m-260 -238 c3 -40 8 -248
11 -463 3 -214 8 -417 11 -450 4 -58 4 -59 -8 -25 -13 34 -15 35 -70 38 l-56
3 -6 112 c-3 62 -9 250 -13 418 l-8 307 42 36 c23 20 50 50 60 66 9 17 20 30
24 30 4 0 10 -33 13 -72z m-252 -588 c2 -217 1 -377 -2 -355 l-5 40 -61 -2
-61 -1 -6 306 -6 307 32 25 c18 14 46 39 62 55 17 17 33 28 36 25 4 -3 9 -183
11 -400z"/>
</g>
</svg>
